<svg width="302" height="107" viewBox="0 0 302 107" fill="none" xmlns="http://www.w3.org/2000/svg">
<path d="M14.848 85V73.224H29.7813C33.4222 73.224 36.608 72.5129 39.3387 71.0907C42.0693 69.6116 44.1742 67.4782 45.6533 64.6907C47.1324 61.9031 47.872 58.6036 47.872 54.792C47.872 50.9804 47.104 47.7093 45.568 44.9787C44.0889 42.248 41.984 40.1431 39.2533 38.664C36.5796 37.1849 33.4222 36.4453 29.7813 36.4453H14.4213V24.7547H29.952C34.5031 24.7547 38.6844 25.4942 42.496 26.9733C46.3644 28.3956 49.7209 30.472 52.5653 33.2027C55.4667 35.8764 57.6853 39.0622 59.2213 42.76C60.8142 46.4009 61.6107 50.44 61.6107 54.8773C61.6107 59.2578 60.8142 63.2969 59.2213 66.9947C57.6853 70.6924 55.4951 73.8782 52.6507 76.552C49.8062 79.2258 46.4498 81.3022 42.5813 82.7813C38.7698 84.2604 34.6169 85 30.1227 85H14.848ZM5.80267 85V24.7547H19.2V85H5.80267ZM89.4213 85.9387C84.9271 85.9387 80.9164 85.0284 77.3893 83.208C73.9191 81.3307 71.1884 78.7422 69.1973 75.4427C67.2062 72.1431 66.2107 68.4169 66.2107 64.264C66.2107 60.1111 67.1778 56.4133 69.112 53.1707C71.1031 49.8711 73.7769 47.2827 77.1333 45.4053C80.4898 43.528 84.2729 42.5893 88.4827 42.5893C92.5787 42.5893 96.1911 43.4711 99.32 45.2347C102.449 46.9982 104.895 49.4444 106.659 52.5733C108.479 55.7022 109.389 59.2862 109.389 63.3253C109.389 64.0649 109.332 64.8613 109.219 65.7147C109.162 66.5111 109.02 67.4498 108.792 68.5307L73.0373 68.616V59.656L103.245 59.5707L97.6133 63.3253C97.5565 60.936 97.1867 58.9733 96.504 57.4373C95.8213 55.8444 94.7973 54.6498 93.432 53.8533C92.1236 53 90.5022 52.5733 88.568 52.5733C86.52 52.5733 84.728 53.0569 83.192 54.024C81.7129 54.9342 80.5467 56.2427 79.6933 57.9493C78.8969 59.656 78.4987 61.7324 78.4987 64.1787C78.4987 66.6249 78.9253 68.7298 79.7787 70.4933C80.6889 72.2 81.9404 73.5369 83.5333 74.504C85.1831 75.4142 87.1173 75.8693 89.336 75.8693C91.384 75.8693 93.2329 75.528 94.8827 74.8453C96.5324 74.1058 97.9831 73.0249 99.2347 71.6027L106.403 78.7707C104.355 81.16 101.88 82.952 98.9787 84.1467C96.0773 85.3413 92.8916 85.9387 89.4213 85.9387ZM133.014 85.8533C129.202 85.8533 125.789 84.9147 122.774 83.0373C119.816 81.16 117.455 78.6 115.691 75.3573C113.985 72.1147 113.131 68.4169 113.131 64.264C113.131 60.1111 113.985 56.4133 115.691 53.1707C117.455 49.928 119.816 47.368 122.774 45.4907C125.789 43.6133 129.202 42.6747 133.014 42.6747C135.802 42.6747 138.305 43.2151 140.523 44.296C142.799 45.3769 144.648 46.8844 146.07 48.8187C147.492 50.696 148.289 52.8578 148.459 55.304V73.224C148.289 75.6702 147.492 77.8604 146.07 79.7947C144.705 81.672 142.884 83.1511 140.609 84.232C138.333 85.3129 135.802 85.8533 133.014 85.8533ZM135.659 74.0773C138.447 74.0773 140.694 73.1671 142.401 71.3467C144.107 69.4693 144.961 67.1084 144.961 64.264C144.961 62.3298 144.562 60.6231 143.766 59.144C143.026 57.6649 141.946 56.5271 140.523 55.7307C139.158 54.8773 137.565 54.4507 135.745 54.4507C133.924 54.4507 132.303 54.8773 130.881 55.7307C129.515 56.5271 128.406 57.6649 127.553 59.144C126.756 60.6231 126.358 62.3298 126.358 64.264C126.358 66.1413 126.756 67.8196 127.553 69.2987C128.349 70.7778 129.458 71.944 130.881 72.7973C132.303 73.6507 133.896 74.0773 135.659 74.0773ZM144.449 85V73.8213L146.411 63.752L144.449 53.6827V43.528H157.249V85H144.449ZM166.441 85V23.048H179.497V85H166.441Z" fill="#EEEEF0"/>
<path d="M218.56 86.024C214.009 86.024 209.799 85.2276 205.931 83.6347C202.119 82.0418 198.763 79.8231 195.861 76.9787C192.96 74.1342 190.713 70.8347 189.12 67.08C187.527 63.2684 186.731 59.1724 186.731 54.792C186.731 50.3547 187.527 46.2587 189.12 42.504C190.713 38.7493 192.932 35.4782 195.776 32.6907C198.62 29.8462 201.948 27.656 205.76 26.12C209.628 24.5271 213.838 23.7307 218.389 23.7307C222.884 23.7307 227.036 24.5271 230.848 26.12C234.716 27.656 238.073 29.8462 240.917 32.6907C243.819 35.4782 246.066 38.7778 247.659 42.5893C249.252 46.344 250.048 50.44 250.048 54.8773C250.048 59.2578 249.252 63.3538 247.659 67.1653C246.066 70.92 243.847 74.2196 241.003 77.064C238.158 79.8516 234.802 82.0418 230.933 83.6347C227.122 85.2276 222.997 86.024 218.56 86.024ZM218.389 73.8213C221.973 73.8213 225.102 73.0249 227.776 71.432C230.507 69.8391 232.612 67.6204 234.091 64.776C235.57 61.8747 236.309 58.5467 236.309 54.792C236.309 51.9476 235.883 49.3876 235.029 47.112C234.176 44.7796 232.953 42.7884 231.36 41.1387C229.767 39.432 227.861 38.152 225.643 37.2987C223.481 36.3884 221.063 35.9333 218.389 35.9333C214.805 35.9333 211.648 36.7298 208.917 38.3227C206.244 39.8587 204.167 42.0489 202.688 44.8933C201.209 47.6809 200.469 50.9804 200.469 54.792C200.469 57.6364 200.896 60.2249 201.749 62.5573C202.603 64.8898 203.797 66.9093 205.333 68.616C206.926 70.2658 208.832 71.5458 211.051 72.456C213.269 73.3662 215.716 73.8213 218.389 73.8213Z" fill="url(#paint0_linear_36_2123)"/>
<path d="M284.75 85V61.3627C284.75 59.2009 284.067 57.4658 282.702 56.1573C281.394 54.792 279.715 54.1093 277.667 54.1093C276.245 54.1093 274.994 54.4222 273.913 55.048C272.832 55.6169 271.978 56.4702 271.353 57.608C270.727 58.6889 270.414 59.9404 270.414 61.3627L265.379 58.888C265.379 55.6453 266.09 52.8009 267.513 50.3547C268.935 47.9084 270.898 46.0311 273.401 44.7227C275.961 43.3573 278.834 42.6747 282.019 42.6747C285.091 42.6747 287.794 43.4142 290.126 44.8933C292.515 46.3156 294.393 48.2213 295.758 50.6107C297.123 53 297.806 55.6169 297.806 58.4613V85H284.75ZM257.358 85V43.528H270.414V85H257.358Z" fill="#EEEEF0"/>
<defs>
<linearGradient id="paint0_linear_36_2123" x1="208.325" y1="84.4389" x2="250.496" y2="16.2721" gradientUnits="userSpaceOnUse">
<stop offset="0.0480769" stop-color="#00E5BF"/>
<stop offset="0.341346" stop-color="#7C5CFC"/>
<stop offset="0.653846" stop-color="#FF6B9D"/>
</linearGradient>
<linearGradient id="paint1_linear_36_2123" x1="208.325" y1="84.4389" x2="250.496" y2="16.2721" gradientUnits="userSpaceOnUse">
<stop offset="0.173077" stop-color="#00E5BF"/>
<stop offset="0.538462" stop-color="#7C5CFC"/>
<stop offset="0.860577" stop-color="#FF6B9D"/>
</linearGradient>
</defs>
</svg>
